<?xml version="1.0" standalone="no"?>
<!DOCTYPE svg PUBLIC "-//W3C//DTD SVG 20010904//EN"
 "http://www.w3.org/TR/2001/REC-SVG-20010904/DTD/svg10.dtd">
<svg version="1.0" xmlns="http://www.w3.org/2000/svg"
 width="225.000000pt" height="225.000000pt" viewBox="0 0 225.000000 225.000000"
 preserveAspectRatio="xMidYMid meet">
<metadata>
Created by potrace 1.14, written by Peter Selinger 2001-2017
</metadata>
<g transform="translate(0.000000,225.000000) scale(0.100000,-0.100000)"
fill="#000000" stroke="none">
<path d="M1017 2214 c-3 -3 -34 -8 -69 -10 -171 -11 -266 -24 -300 -38 -9 -4
-22 -5 -28 -1 -5 3 -10 1 -10 -6 0 -7 -3 -9 -6 -6 -4 3 -16 1 -28 -5 -11 -7
-25 -11 -29 -10 -4 1 -22 -6 -40 -15 -18 -9 -38 -16 -46 -14 -7 1 -10 -2 -6
-8 3 -6 -1 -11 -9 -11 -8 0 -29 -13 -45 -29 -16 -16 -32 -27 -34 -25 -9 9
-112 -117 -108 -132 2 -4 -4 -11 -13 -16 -9 -5 -16 -18 -16 -28 0 -11 -4 -20
-10 -20 -5 0 -10 -9 -10 -19 0 -11 -4 -22 -9 -26 -6 -3 -8 -14 -6 -25 2 -11 0
-20 -4 -20 -5 0 -14 -28 -21 -62 -7 -35 -14 -72 -16 -83 -8 -39 -16 -121 -19
-195 -2 -41 -4 -77 -5 -80 -1 -3 -1 -68 -1 -145 1 -227 10 -319 46 -470 13
-54 67 -175 78 -175 6 0 7 -3 4 -6 -13 -13 64 -101 133 -153 19 -14 38 -30 42
-36 4 -5 8 -7 8 -3 0 4 25 -6 56 -22 30 -17 52 -25 48 -18 -5 8 1 7 16 -3 14
-9 43 -20 65 -24 22 -5 47 -10 55 -12 8 -2 27 -5 43 -5 15 -1 27 -5 27 -8 0
-4 19 -8 43 -9 68 -3 108 -8 114 -14 3 -3 16 -2 30 4 13 5 22 5 19 1 -3 -5 84
-7 192 -6 108 1 197 3 197 4 0 1 20 4 45 6 59 5 115 12 115 14 0 2 29 7 75 14
47 7 115 28 129 39 8 7 15 10 15 9 2 -6 61 22 68 33 4 5 8 7 8 2 0 -11 80 44
80 56 0 6 3 8 6 4 4 -3 21 10 38 30 17 20 38 44 48 54 9 9 14 20 11 23 -4 3
-2 6 4 6 6 0 16 15 24 33 7 17 16 34 20 37 14 10 62 189 62 228 -1 12 3 22 7
22 5 0 9 8 9 18 0 9 3 49 6 87 11 144 11 155 1 155 -7 0 -7 3 0 8 13 8 14 252
1 252 -4 0 -3 8 2 19 6 10 8 21 4 25 -3 3 -7 30 -9 59 -2 30 -8 83 -14 118 -6
35 -12 71 -12 79 0 8 -5 21 -11 28 -5 6 -6 12 -2 12 4 0 0 11 -9 24 -9 14 -12
27 -7 31 6 3 -3 30 -19 60 -16 31 -28 56 -27 58 5 6 -78 119 -103 138 -16 13
-26 27 -24 31 3 4 -3 5 -12 1 -12 -4 -15 -3 -10 5 5 8 0 12 -14 12 -12 0 -18
5 -15 10 3 6 0 10 -8 10 -8 0 -20 7 -27 15 -7 8 -16 12 -21 9 -5 -3 -9 0 -9 5
0 6 -9 11 -20 11 -11 0 -20 4 -20 9 0 5 -15 12 -32 16 -18 4 -37 9 -43 11 -57
18 -120 32 -127 28 -4 -3 -8 -1 -8 5 0 7 -8 7 -24 1 -14 -5 -27 -5 -32 0 -5 5
-49 11 -98 14 -48 2 -90 7 -93 9 -3 3 -16 2 -29 -3 -16 -6 -24 -6 -24 1 0 6
-7 6 -20 -1 -11 -6 -20 -7 -20 -3 0 10 -72 9 -89 -1 -7 -5 -18 -3 -23 2 -8 8
-17 8 -31 1 -14 -8 -18 -8 -13 0 8 12 3 15 -7 5z"/>
</g>
</svg>
